<?xml version="1.0" encoding="UTF-8" standalone="no"?>
<svg
   version="1.0"
   width="1528.000000pt"
   height="819.000000pt"
   viewBox="0 0 1528.000000 819.000000"
   preserveAspectRatio="xMidYMid meet"
   id="svg37"
   sodipodi:docname="dk-logo-small.svg"
   inkscape:version="1.2 (dc2aeda, 2022-05-15)"
   xmlns:inkscape="http://www.inkscape.org/namespaces/inkscape"
   xmlns:sodipodi="http://sodipodi.sourceforge.net/DTD/sodipodi-0.dtd"
   xmlns="http://www.w3.org/2000/svg"
   xmlns:svg="http://www.w3.org/2000/svg">
  <defs
     id="defs41" />
  <sodipodi:namedview
     id="namedview39"
     pagecolor="#ffffff"
     bordercolor="#000000"
     borderopacity="0.25"
     inkscape:showpageshadow="2"
     inkscape:pageopacity="0.0"
     inkscape:pagecheckerboard="0"
     inkscape:deskcolor="#d1d1d1"
     inkscape:document-units="pt"
     showgrid="false"
     inkscape:zoom="0.21611722"
     inkscape:cx="1085.0593"
     inkscape:cy="569.13558"
     inkscape:window-width="1509"
     inkscape:window-height="980"
     inkscape:window-x="0"
     inkscape:window-y="38"
     inkscape:window-maximized="0"
     inkscape:current-layer="svg37" />
  <g
     transform="matrix(0.14701265,0,0,-0.14701265,-359.17938,1203.0934)"
     fill="#000000"
     stroke="none"
     id="g35">
    <path
       d="m 5970,7501 v -668 l -257,-6 c -218,-4 -282,-9 -413,-32 -847,-147 -1521,-808 -1684,-1650 -47,-244 -48,-547 -2,-783 122,-629 508,-1160 1060,-1456 209,-112 531,-211 768,-236 56,-6 669,-10 1536,-10 h 1442 v 22 c 0,21 1,21 28,-5 l 28,-27 h 1612 c 887,0 1612,3 1612,8 0,4 -468,475 -1040,1047 l -1040,1040 1040,1040 c 572,572 1040,1042 1040,1045 0,3 -728,4 -1617,2 l -1618,-4 -46,-45 -47,-45 -12,54 c -23,94 -90,280 -137,377 -137,281 -354,528 -623,708 -165,110 -379,203 -575,248 -165,38 -252,44 -657,45 h -398 z m 755,339 c 209,-20 375,-68 554,-160 410,-211 690,-592 778,-1060 11,-59 17,-169 20,-357 3,-150 8,-273 12,-273 3,0 123,117 266,260 l 260,260 h 1150 1150 l -878,-878 c -482,-482 -877,-882 -877,-887 0,-5 395,-405 877,-887 l 878,-878 H 9765 8615 l -255,255 c -140,140 -258,255 -262,255 -5,0 -8,-115 -8,-255 V 2980 H 6858 c -1018,0 -1255,3 -1358,15 -498,58 -900,275 -1204,650 -222,273 -350,598 -386,980 -12,119 -1,303 26,440 139,716 690,1266 1409,1406 99,20 153,22 533,26 l 422,5 v 674 674 h 158 c 86,0 207,-5 267,-10 z"
       id="path9"
       style="fill:#ee5922;fill-opacity:1" />
    <path
       d="m 6610,6866 v -675 l -577,-3 c -499,-4 -589,-6 -658,-21 -397,-85 -741,-328 -949,-669 -320,-527 -275,-1197 114,-1673 216,-264 488,-427 850,-507 l 105,-23 1143,-3 1142,-3 v 258 258 l 111,110 111,110 361,-368 362,-368 725,1 h 725 l -728,728 -727,727 727,728 728,727 h -720 -720 l -476,-476 -476,-476 -7,614 c -5,450 -11,637 -21,703 -70,444 -394,808 -830,931 -57,16 -233,44 -282,44 h -33 z m 0,-2121 v -285 h -530 c -591,0 -557,-4 -624,71 -82,90 -106,210 -64,315 33,81 73,129 132,159 l 50,25 h 518 518 z"
       id="path11"
       style="fill:#ffffff;fill-opacity:1" />
  </g>
</svg>
