<?xml version="1.0" encoding="UTF-8" standalone="no"?>
<svg
   version="1.0"
   width="1528.000000pt"
   height="819.000000pt"
   viewBox="0 0 1528.000000 819.000000"
   preserveAspectRatio="xMidYMid meet"
   id="svg37"
   sodipodi:docname="dk-logo-white.svg"
   inkscape:version="1.2 (dc2aeda, 2022-05-15)"
   xmlns:inkscape="http://www.inkscape.org/namespaces/inkscape"
   xmlns:sodipodi="http://sodipodi.sourceforge.net/DTD/sodipodi-0.dtd"
   xmlns="http://www.w3.org/2000/svg"
   xmlns:svg="http://www.w3.org/2000/svg">
  <defs
     id="defs41" />
  <sodipodi:namedview
     id="namedview39"
     pagecolor="#ffffff"
     bordercolor="#000000"
     borderopacity="0.25"
     inkscape:showpageshadow="2"
     inkscape:pageopacity="0.0"
     inkscape:pagecheckerboard="0"
     inkscape:deskcolor="#d1d1d1"
     inkscape:document-units="pt"
     showgrid="false"
     inkscape:zoom="0.21611722"
     inkscape:cx="1080.4322"
     inkscape:cy="569.13558"
     inkscape:window-width="1509"
     inkscape:window-height="980"
     inkscape:window-x="0"
     inkscape:window-y="38"
     inkscape:window-maximized="0"
     inkscape:current-layer="svg37" />
  <g
     transform="translate(0.000000,819.000000) scale(0.100000,-0.100000)"
     fill="#000000"
     stroke="none"
     id="g35">
    <path
       d="M5970 7501 l0 -668 -257 -6 c-218 -4 -282 -9 -413 -32 -847 -147 -1521 -808 -1684 -1650 -47 -244 -48 -547 -2 -783 122 -629 508 -1160 1060 -1456 209 -112 531 -211 768 -236 56 -6 669 -10 1536 -10 l1442 0 0 22 c0 21 1 21 28 -5 l28 -27 1612 0 c887 0 1612 3 1612 8 0 4 -468 475 -1040 1047 l-1040 1040 1040 1040 c572 572 1040 1042 1040 1045 0 3 -728 4 -1617 2 l-1618 -4 -46 -45 -47 -45 -12 54 c-23 94 -90 280 -137 377 -137 281 -354 528 -623 708 -165 110 -379 203 -575 248 -165 38 -252 44 -657 45 l-398 0 0 -669z m755 339 c209 -20 375 -68 554 -160 410 -211 690 -592 778 -1060 11 -59 17 -169 20 -357 3 -150 8 -273 12 -273 3 0 123 117 266 260 l260 260 1150 0 1150 0 -878 -878 c-482 -482 -877 -882 -877 -887 0 -5 395 -405 877 -887 l878 -878 -1150 0 -1150 0 -255 255 c-140 140 -258 255 -262 255 -5 0 -8 -115 -8 -255 l0 -255 -1232 0 c-1018 0 -1255 3 -1358 15 -498 58 -900 275 -1204 650 -222 273 -350 598 -386 980 -12 119 -1 303 26 440 139 716 690 1266 1409 1406 99 20 153 22 533 26 l422 5 0 674 0 674 158 0 c86 0 207 -5 267 -10z"
       id="path9"
       style="fill:#ee5922;fill-opacity:1" />
    <path
       d="M6610 6866 l0 -675 -577 -3 c-499 -4 -589 -6 -658 -21 -397 -85 -741 -328 -949 -669 -320 -527 -275 -1197 114 -1673 216 -264 488 -427 850 -507 l105 -23 1143 -3 1142 -3 0 258 0 258 111 110 111 110 361 -368 362 -368 725 1 725 0 -728 728 -727 727 727 728 728 727 -720 0 -720 0 -476 -476 -476 -476 -7 614 c-5 450 -11 637 -21 703 -70 444 -394 808 -830 931 -57 16 -233 44 -282 44 l-33 0 0 -674z m0 -2121 l0 -285 -530 0 c-591 0 -557 -4 -624 71 -82 90 -106 210 -64 315 33 81 73 129 132 159 l50 25 518 0 518 0 0 -285z"
       id="path11"
       style="fill:#ffffff;fill-opacity:1" />
    <path
       d="M14560 1670 c-190 -26 -352 -126 -419 -259 -71 -138 -66 -341 12 -473 39 -68 137 -153 223 -194 42 -20 139 -54 216 -76 204 -57 259 -88 278 -159 17 -63 -25 -132 -100 -167 -60 -27 -208 -21 -305 12 -91 31 -186 81 -263 139 -29 22 -55 37 -58 34 -8 -8 -94 -289 -94 -308 0 -34 186 -138 315 -175 306 -88 633 -32 787 135 90 97 128 201 128 351 0 148 -44 258 -140 350 -88 85 -204 137 -450 206 -138 38 -194 82 -194 152 0 73 113 132 223 116 96 -13 209 -47 300 -90 52 -24 97 -41 101 -37 8 10 92 284 88 288 -20 17 -99 59 -149 81 -150 64 -354 94 -499 74z"
       id="path13"
       style="fill:#ffffff" />
    <path
       d="M0 836 l0 -806 246 0 c135 0 289 5 342 11 394 46 630 236 714 576 30 124 30 323 -1 443 -74 290 -242 459 -541 545 -93 27 -102 28 -427 32 l-333 5 0 -806z m720 624 c212 -63 336 -176 401 -362 88 -257 39 -551 -121 -722 -135 -144 -315 -196 -677 -196 l-173 0 0 656 0 656 248 -5 c218 -4 256 -7 322 -27z"
       id="path15"
       style="fill:#ffffff" />
    <path
       d="M1480 835 l0 -805 455 0 455 0 0 75 0 75 -375 0 -375 0 0 315 0 315 310 0 310 0 0 70 0 70 -310 0 -310 0 0 275 0 275 375 0 375 0 0 70 0 70 -455 0 -455 0 0 -805z"
       id="path17"
       style="fill:#ffffff" />
    <path
       d="M2570 835 l0 -805 455 0 455 0 0 75 0 75 -375 0 -375 0 0 730 0 730 -80 0 -80 0 0 -805z"
       id="path19"
       style="fill:#ffffff" />
    <path
       d="M3483 1128 c4 -509 4 -514 30 -618 54 -222 144 -353 299 -435 100 -53 199 -75 338 -75 353 0 564 173 642 527 20 92 22 131 26 606 l4 507 -81 0 -81 0 0 -464 c0 -494 -5 -572 -46 -696 -60 -179 -177 -288 -350 -325 -87 -19 -141 -18 -229 0 -122 26 -217 88 -279 180 -43 65 -61 108 -88 205 -20 71 -21 106 -25 588 l-4 512 -81 0 -80 0 5 -512z"
       id="path21"
       style="fill:#ffffff" />
    <path
       d="M4930 1632 c0 -4 19 -35 43 -67 24 -33 147 -205 275 -382 l231 -321 -290 -406 c-159 -224 -289 -411 -289 -416 0 -6 38 -10 88 -10 l89 0 247 350 c136 192 250 350 254 350 4 -1 115 -158 247 -350 l240 -349 98 -1 c53 0 97 3 97 6 0 4 -127 185 -282 402 -156 217 -286 401 -290 408 -5 7 89 148 251 376 142 200 266 376 276 391 l17 27 -93 0 -94 0 -230 -325 c-127 -178 -232 -324 -235 -324 -3 0 -107 145 -231 322 l-226 322 -96 3 c-54 1 -97 -1 -97 -6z"
       id="path23"
       style="fill:#ffffff" />
    <path
       d="M6340 835 l0 -805 455 0 455 0 0 75 0 75 -380 0 -380 0 0 315 0 315 315 0 315 0 0 70 0 70 -315 0 -315 0 0 275 0 275 380 0 380 0 0 70 0 70 -455 0 -455 0 0 -805z"
       id="path25"
       style="fill:#ffffff" />
    <path
       d="M7430 835 l0 -805 220 0 220 0 2 352 3 352 295 -352 295 -351 457 -1 458 0 2 454 3 455 358 -455 358 -454 169 0 170 0 0 805 0 805 -195 0 -195 0 -2 -452 -3 -453 -355 452 -355 452 -172 0 -173 1 -2 -794 -3 -794 -355 409 c-195 225 -355 411 -355 413 0 3 133 168 295 367 162 199 301 370 308 380 13 18 5 19 -226 19 l-239 0 -269 -342 -269 -342 -3 342 -2 342 -220 0 -220 0 0 -805z"
       id="path27"
       style="fill:#ffffff" />
    <path
       d="M10640 835 l0 -805 220 0 220 0 0 805 0 805 -220 0 -220 0 0 -805z"
       id="path29"
       style="fill:#ffffff" />
    <path
       d="M11133 1628 c2 -7 154 -370 338 -806 l332 -792 180 2 179 3 334 795 c183 437 334 798 334 803 0 4 -100 6 -222 5 l-222 -3 -192 -485 c-105 -266 -196 -490 -201 -498 -6 -10 -68 137 -207 487 l-199 501 -230 0 c-179 0 -228 -3 -224 -12z"
       id="path31"
       style="fill:#ffffff" />
    <path
       d="M12880 835 l0 -805 560 0 560 0 0 170 0 170 -340 0 -340 0 0 170 0 170 275 0 275 0 0 170 0 170 -275 0 -275 0 0 130 0 130 340 0 340 0 0 165 0 165 -560 0 -560 0 0 -805z"
       id="path33"
       style="fill:#ffffff" />
  </g>
</svg>
